<svg width="230" height="258" viewBox="0 0 230 258" fill="none" xmlns="http://www.w3.org/2000/svg">
<g filter="url(#filter0_f_117_64)">
<mask id="path-1-inside-1_117_64" fill="white">
<path fill-rule="evenodd" clip-rule="evenodd" d="M50 50.3924L179.82 143.14L134.769 168.195L141.768 180.779L132.145 186.131C133.402 188.736 132.422 191.901 129.862 193.325C127.302 194.748 124.097 193.911 122.547 191.469L112.924 196.821L105.925 184.237L60.309 209.607L50 50.3924Z"/>
</mask>
<path d="M179.82 143.14L180.792 144.888L183.556 143.351L180.983 141.513L179.82 143.14ZM50 50.3924L51.1626 48.765L47.7317 46.3139L48.0042 50.5216L50 50.3924ZM134.769 168.195L133.797 166.447L132.049 167.419L133.022 169.167L134.769 168.195ZM141.768 180.779L142.74 182.527L144.488 181.555L143.516 179.807L141.768 180.779ZM132.145 186.131L131.173 184.383L129.524 185.3L130.344 187L132.145 186.131ZM129.862 193.325L130.834 195.073H130.834L129.862 193.325ZM122.547 191.469L124.235 190.398L123.224 188.804L121.575 189.721L122.547 191.469ZM112.924 196.821L111.176 197.793L112.148 199.541L113.896 198.569L112.924 196.821ZM105.925 184.237L107.673 183.265L106.701 181.517L104.953 182.489L105.925 184.237ZM60.309 209.607L58.3132 209.736L58.5175 212.891L61.2811 211.354L60.309 209.607ZM180.983 141.513L51.1626 48.765L48.8374 52.0197L178.657 144.768L180.983 141.513ZM135.741 169.943L180.792 144.888L178.848 141.392L133.797 166.447L135.741 169.943ZM143.516 179.807L136.517 167.223L133.022 169.167L140.02 181.751L143.516 179.807ZM133.117 187.879L142.74 182.527L140.796 179.031L131.173 184.383L133.117 187.879ZM130.344 187C131.143 188.656 130.519 190.671 128.89 191.577L130.834 195.073C134.326 193.131 135.661 188.815 133.946 185.262L130.344 187ZM128.89 191.577C127.262 192.483 125.221 191.95 124.235 190.398L120.858 192.541C122.972 195.872 127.343 197.014 130.834 195.073L128.89 191.577ZM113.896 198.569L123.519 193.217L121.575 189.721L111.952 195.073L113.896 198.569ZM104.177 185.209L111.176 197.793L114.672 195.849L107.673 183.265L104.177 185.209ZM61.2811 211.354L106.897 185.985L104.953 182.489L59.3369 207.859L61.2811 211.354ZM48.0042 50.5216L58.3132 209.736L62.3048 209.477L51.9958 50.2631L48.0042 50.5216Z" fill="#3A36FF" mask="url(#path-1-inside-1_117_64)"/>
</g>
<g filter="url(#filter1_f_117_64)">
<mask id="path-3-inside-2_117_64" fill="white">
<path fill-rule="evenodd" clip-rule="evenodd" d="M50 50.3924L179.82 143.14L134.769 168.195L141.768 180.779L132.145 186.131C133.402 188.736 132.422 191.901 129.862 193.325C127.302 194.748 124.097 193.911 122.547 191.469L112.924 196.821L105.925 184.237L60.309 209.607L50 50.3924Z"/>
</mask>
<path d="M179.82 143.14L180.792 144.888L183.556 143.351L180.983 141.513L179.82 143.14ZM50 50.3924L51.1626 48.765L47.7317 46.3139L48.0042 50.5216L50 50.3924ZM134.769 168.195L133.797 166.447L132.049 167.419L133.022 169.167L134.769 168.195ZM141.768 180.779L142.74 182.527L144.488 181.555L143.516 179.807L141.768 180.779ZM132.145 186.131L131.173 184.383L129.524 185.3L130.344 187L132.145 186.131ZM129.862 193.325L130.834 195.073H130.834L129.862 193.325ZM122.547 191.469L124.235 190.398L123.224 188.804L121.575 189.721L122.547 191.469ZM112.924 196.821L111.176 197.793L112.148 199.541L113.896 198.569L112.924 196.821ZM105.925 184.237L107.673 183.265L106.701 181.517L104.953 182.489L105.925 184.237ZM60.309 209.607L58.3132 209.736L58.5175 212.891L61.2811 211.354L60.309 209.607ZM180.983 141.513L51.1626 48.765L48.8374 52.0197L178.657 144.768L180.983 141.513ZM135.741 169.943L180.792 144.888L178.848 141.392L133.797 166.447L135.741 169.943ZM143.516 179.807L136.517 167.223L133.022 169.167L140.02 181.751L143.516 179.807ZM133.117 187.879L142.74 182.527L140.796 179.031L131.173 184.383L133.117 187.879ZM130.344 187C131.143 188.656 130.519 190.671 128.89 191.577L130.834 195.073C134.326 193.131 135.661 188.815 133.946 185.262L130.344 187ZM128.89 191.577C127.262 192.483 125.221 191.95 124.235 190.398L120.858 192.541C122.972 195.872 127.343 197.014 130.834 195.073L128.89 191.577ZM113.896 198.569L123.519 193.217L121.575 189.721L111.952 195.073L113.896 198.569ZM104.177 185.209L111.176 197.793L114.672 195.849L107.673 183.265L104.177 185.209ZM61.2811 211.354L106.897 185.985L104.953 182.489L59.3369 207.859L61.2811 211.354ZM48.0042 50.5216L58.3132 209.736L62.3048 209.477L51.9958 50.2631L48.0042 50.5216Z" fill="#3A36FF" mask="url(#path-3-inside-2_117_64)"/>
</g>
<g filter="url(#filter2_f_117_64)">
<mask id="path-5-inside-3_117_64" fill="white">
<path fill-rule="evenodd" clip-rule="evenodd" d="M50 50.3924L179.82 143.14L134.769 168.195L141.768 180.779L132.145 186.131C133.402 188.736 132.422 191.901 129.862 193.325C127.302 194.748 124.097 193.911 122.547 191.469L112.924 196.821L105.925 184.237L60.309 209.607L50 50.3924Z"/>
</mask>
<path d="M179.82 143.14L180.792 144.888L183.556 143.351L180.983 141.513L179.82 143.14ZM50 50.3924L51.1626 48.765L47.7317 46.3139L48.0042 50.5216L50 50.3924ZM134.769 168.195L133.797 166.447L132.049 167.419L133.022 169.167L134.769 168.195ZM141.768 180.779L142.74 182.527L144.488 181.555L143.516 179.807L141.768 180.779ZM132.145 186.131L131.173 184.383L129.524 185.3L130.344 187L132.145 186.131ZM129.862 193.325L130.834 195.073H130.834L129.862 193.325ZM122.547 191.469L124.235 190.398L123.224 188.804L121.575 189.721L122.547 191.469ZM112.924 196.821L111.176 197.793L112.148 199.541L113.896 198.569L112.924 196.821ZM105.925 184.237L107.673 183.265L106.701 181.517L104.953 182.489L105.925 184.237ZM60.309 209.607L58.3132 209.736L58.5175 212.891L61.2811 211.354L60.309 209.607ZM180.983 141.513L51.1626 48.765L48.8374 52.0197L178.657 144.768L180.983 141.513ZM135.741 169.943L180.792 144.888L178.848 141.392L133.797 166.447L135.741 169.943ZM143.516 179.807L136.517 167.223L133.022 169.167L140.02 181.751L143.516 179.807ZM133.117 187.879L142.74 182.527L140.796 179.031L131.173 184.383L133.117 187.879ZM130.344 187C131.143 188.656 130.519 190.671 128.89 191.577L130.834 195.073C134.326 193.131 135.661 188.815 133.946 185.262L130.344 187ZM128.89 191.577C127.262 192.483 125.221 191.95 124.235 190.398L120.858 192.541C122.972 195.872 127.343 197.014 130.834 195.073L128.89 191.577ZM113.896 198.569L123.519 193.217L121.575 189.721L111.952 195.073L113.896 198.569ZM104.177 185.209L111.176 197.793L114.672 195.849L107.673 183.265L104.177 185.209ZM61.2811 211.354L106.897 185.985L104.953 182.489L59.3369 207.859L61.2811 211.354ZM48.0042 50.5216L58.3132 209.736L62.3048 209.477L51.9958 50.2631L48.0042 50.5216Z" fill="#3A36FF" mask="url(#path-5-inside-3_117_64)"/>
</g>
<g filter="url(#filter3_f_117_64)">
<mask id="path-7-inside-4_117_64" fill="white">
<path fill-rule="evenodd" clip-rule="evenodd" d="M50 50.3924L179.82 143.14L134.769 168.195L141.768 180.779L132.145 186.131C133.402 188.736 132.422 191.901 129.862 193.325C127.302 194.748 124.097 193.911 122.547 191.469L112.924 196.821L105.925 184.237L60.309 209.607L50 50.3924Z"/>
</mask>
<path d="M179.82 143.14L180.792 144.888L183.556 143.351L180.983 141.513L179.82 143.14ZM50 50.3924L51.1626 48.765L47.7317 46.3139L48.0042 50.5216L50 50.3924ZM134.769 168.195L133.797 166.447L132.049 167.419L133.022 169.167L134.769 168.195ZM141.768 180.779L142.74 182.527L144.488 181.555L143.516 179.807L141.768 180.779ZM132.145 186.131L131.173 184.383L129.524 185.3L130.344 187L132.145 186.131ZM129.862 193.325L130.834 195.073H130.834L129.862 193.325ZM122.547 191.469L124.235 190.398L123.224 188.804L121.575 189.721L122.547 191.469ZM112.924 196.821L111.176 197.793L112.148 199.541L113.896 198.569L112.924 196.821ZM105.925 184.237L107.673 183.265L106.701 181.517L104.953 182.489L105.925 184.237ZM60.309 209.607L58.3132 209.736L58.5175 212.891L61.2811 211.354L60.309 209.607ZM180.983 141.513L51.1626 48.765L48.8374 52.0197L178.657 144.768L180.983 141.513ZM135.741 169.943L180.792 144.888L178.848 141.392L133.797 166.447L135.741 169.943ZM143.516 179.807L136.517 167.223L133.022 169.167L140.02 181.751L143.516 179.807ZM133.117 187.879L142.74 182.527L140.796 179.031L131.173 184.383L133.117 187.879ZM130.344 187C131.143 188.656 130.519 190.671 128.89 191.577L130.834 195.073C134.326 193.131 135.661 188.815 133.946 185.262L130.344 187ZM128.89 191.577C127.262 192.483 125.221 191.95 124.235 190.398L120.858 192.541C122.972 195.872 127.343 197.014 130.834 195.073L128.89 191.577ZM113.896 198.569L123.519 193.217L121.575 189.721L111.952 195.073L113.896 198.569ZM104.177 185.209L111.176 197.793L114.672 195.849L107.673 183.265L104.177 185.209ZM61.2811 211.354L106.897 185.985L104.953 182.489L59.3369 207.859L61.2811 211.354ZM48.0042 50.5216L58.3132 209.736L62.3048 209.477L51.9958 50.2631L48.0042 50.5216Z" fill="#3A36FF" mask="url(#path-7-inside-4_117_64)"/>
</g>
<g filter="url(#filter4_f_117_64)">
<mask id="path-9-inside-5_117_64" fill="white">
<path fill-rule="evenodd" clip-rule="evenodd" d="M50 50.3924L179.82 143.14L134.769 168.195L141.768 180.779L132.145 186.131C133.402 188.736 132.422 191.901 129.862 193.325C127.302 194.748 124.097 193.911 122.547 191.469L112.924 196.821L105.925 184.237L60.309 209.607L50 50.3924Z"/>
</mask>
<path d="M179.82 143.14L180.792 144.888L183.556 143.351L180.983 141.513L179.82 143.14ZM50 50.3924L51.1626 48.765L47.7317 46.3139L48.0042 50.5216L50 50.3924ZM134.769 168.195L133.797 166.447L132.049 167.419L133.022 169.167L134.769 168.195ZM141.768 180.779L142.74 182.527L144.488 181.555L143.516 179.807L141.768 180.779ZM132.145 186.131L131.173 184.383L129.524 185.3L130.344 187L132.145 186.131ZM129.862 193.325L130.834 195.073H130.834L129.862 193.325ZM122.547 191.469L124.235 190.398L123.224 188.804L121.575 189.721L122.547 191.469ZM112.924 196.821L111.176 197.793L112.148 199.541L113.896 198.569L112.924 196.821ZM105.925 184.237L107.673 183.265L106.701 181.517L104.953 182.489L105.925 184.237ZM60.309 209.607L58.3132 209.736L58.5175 212.891L61.2811 211.354L60.309 209.607ZM180.983 141.513L51.1626 48.765L48.8374 52.0197L178.657 144.768L180.983 141.513ZM135.741 169.943L180.792 144.888L178.848 141.392L133.797 166.447L135.741 169.943ZM143.516 179.807L136.517 167.223L133.022 169.167L140.02 181.751L143.516 179.807ZM133.117 187.879L142.74 182.527L140.796 179.031L131.173 184.383L133.117 187.879ZM130.344 187C131.143 188.656 130.519 190.671 128.89 191.577L130.834 195.073C134.326 193.131 135.661 188.815 133.946 185.262L130.344 187ZM128.89 191.577C127.262 192.483 125.221 191.95 124.235 190.398L120.858 192.541C122.972 195.872 127.343 197.014 130.834 195.073L128.89 191.577ZM113.896 198.569L123.519 193.217L121.575 189.721L111.952 195.073L113.896 198.569ZM104.177 185.209L111.176 197.793L114.672 195.849L107.673 183.265L104.177 185.209ZM61.2811 211.354L106.897 185.985L104.953 182.489L59.3369 207.859L61.2811 211.354ZM48.0042 50.5216L58.3132 209.736L62.3048 209.477L51.9958 50.2631L48.0042 50.5216Z" fill="#3A36FF" mask="url(#path-9-inside-5_117_64)"/>
</g>
<g filter="url(#filter5_f_117_64)">
<mask id="path-11-inside-6_117_64" fill="white">
<path fill-rule="evenodd" clip-rule="evenodd" d="M50 50.3924L179.82 143.14L134.769 168.195L141.768 180.779L132.145 186.131C133.402 188.736 132.422 191.901 129.862 193.325C127.302 194.748 124.097 193.911 122.547 191.469L112.924 196.821L105.925 184.237L60.309 209.607L50 50.3924Z"/>
</mask>
<path d="M179.82 143.14L180.792 144.888L183.556 143.351L180.983 141.513L179.82 143.14ZM50 50.3924L51.1626 48.765L47.7317 46.3139L48.0042 50.5216L50 50.3924ZM134.769 168.195L133.797 166.447L132.049 167.419L133.022 169.167L134.769 168.195ZM141.768 180.779L142.74 182.527L144.488 181.555L143.516 179.807L141.768 180.779ZM132.145 186.131L131.173 184.383L129.524 185.3L130.344 187L132.145 186.131ZM129.862 193.325L130.834 195.073H130.834L129.862 193.325ZM122.547 191.469L124.235 190.398L123.224 188.804L121.575 189.721L122.547 191.469ZM112.924 196.821L111.176 197.793L112.148 199.541L113.896 198.569L112.924 196.821ZM105.925 184.237L107.673 183.265L106.701 181.517L104.953 182.489L105.925 184.237ZM60.309 209.607L58.3132 209.736L58.5175 212.891L61.2811 211.354L60.309 209.607ZM180.983 141.513L51.1626 48.765L48.8374 52.0197L178.657 144.768L180.983 141.513ZM135.741 169.943L180.792 144.888L178.848 141.392L133.797 166.447L135.741 169.943ZM143.516 179.807L136.517 167.223L133.022 169.167L140.02 181.751L143.516 179.807ZM133.117 187.879L142.74 182.527L140.796 179.031L131.173 184.383L133.117 187.879ZM130.344 187C131.143 188.656 130.519 190.671 128.89 191.577L130.834 195.073C134.326 193.131 135.661 188.815 133.946 185.262L130.344 187ZM128.89 191.577C127.262 192.483 125.221 191.95 124.235 190.398L120.858 192.541C122.972 195.872 127.343 197.014 130.834 195.073L128.89 191.577ZM113.896 198.569L123.519 193.217L121.575 189.721L111.952 195.073L113.896 198.569ZM104.177 185.209L111.176 197.793L114.672 195.849L107.673 183.265L104.177 185.209ZM61.2811 211.354L106.897 185.985L104.953 182.489L59.3369 207.859L61.2811 211.354ZM48.0042 50.5216L58.3132 209.736L62.3048 209.477L51.9958 50.2631L48.0042 50.5216Z" fill="#3A36FF" mask="url(#path-11-inside-6_117_64)"/>
</g>
<g filter="url(#filter6_f_117_64)">
<mask id="path-13-inside-7_117_64" fill="white">
<path fill-rule="evenodd" clip-rule="evenodd" d="M50 50.3924L179.82 143.14L134.769 168.195L141.768 180.779L132.145 186.131C133.402 188.736 132.422 191.901 129.862 193.325C127.302 194.748 124.097 193.911 122.547 191.469L112.924 196.821L105.925 184.237L60.309 209.607L50 50.3924Z"/>
</mask>
<path d="M179.82 143.14L180.792 144.888L183.556 143.351L180.983 141.513L179.82 143.14ZM50 50.3924L51.1626 48.765L47.7317 46.3139L48.0042 50.5216L50 50.3924ZM134.769 168.195L133.797 166.447L132.049 167.419L133.022 169.167L134.769 168.195ZM141.768 180.779L142.74 182.527L144.488 181.555L143.516 179.807L141.768 180.779ZM132.145 186.131L131.173 184.383L129.524 185.3L130.344 187L132.145 186.131ZM129.862 193.325L130.834 195.073H130.834L129.862 193.325ZM122.547 191.469L124.235 190.398L123.224 188.804L121.575 189.721L122.547 191.469ZM112.924 196.821L111.176 197.793L112.148 199.541L113.896 198.569L112.924 196.821ZM105.925 184.237L107.673 183.265L106.701 181.517L104.953 182.489L105.925 184.237ZM60.309 209.607L58.3132 209.736L58.5175 212.891L61.2811 211.354L60.309 209.607ZM180.983 141.513L51.1626 48.765L48.8374 52.0197L178.657 144.768L180.983 141.513ZM135.741 169.943L180.792 144.888L178.848 141.392L133.797 166.447L135.741 169.943ZM143.516 179.807L136.517 167.223L133.022 169.167L140.02 181.751L143.516 179.807ZM133.117 187.879L142.74 182.527L140.796 179.031L131.173 184.383L133.117 187.879ZM130.344 187C131.143 188.656 130.519 190.671 128.89 191.577L130.834 195.073C134.326 193.131 135.661 188.815 133.946 185.262L130.344 187ZM128.89 191.577C127.262 192.483 125.221 191.95 124.235 190.398L120.858 192.541C122.972 195.872 127.343 197.014 130.834 195.073L128.89 191.577ZM113.896 198.569L123.519 193.217L121.575 189.721L111.952 195.073L113.896 198.569ZM104.177 185.209L111.176 197.793L114.672 195.849L107.673 183.265L104.177 185.209ZM61.2811 211.354L106.897 185.985L104.953 182.489L59.3369 207.859L61.2811 211.354ZM48.0042 50.5216L58.3132 209.736L62.3048 209.477L51.9958 50.2631L48.0042 50.5216Z" fill="#3A36FF" mask="url(#path-13-inside-7_117_64)"/>
</g>
<g filter="url(#filter7_f_117_64)">
<mask id="path-15-inside-8_117_64" fill="white">
<path fill-rule="evenodd" clip-rule="evenodd" d="M50 50.3924L179.82 143.14L134.769 168.195L141.768 180.779L132.145 186.131C133.402 188.736 132.422 191.901 129.862 193.325C127.302 194.748 124.097 193.911 122.547 191.469L112.924 196.821L105.925 184.237L60.309 209.607L50 50.3924Z"/>
</mask>
<path d="M179.82 143.14L180.792 144.888L183.556 143.351L180.983 141.513L179.82 143.14ZM50 50.3924L51.1626 48.765L47.7317 46.3139L48.0042 50.5216L50 50.3924ZM134.769 168.195L133.797 166.447L132.049 167.419L133.022 169.167L134.769 168.195ZM141.768 180.779L142.74 182.527L144.488 181.555L143.516 179.807L141.768 180.779ZM132.145 186.131L131.173 184.383L129.524 185.3L130.344 187L132.145 186.131ZM129.862 193.325L130.834 195.073H130.834L129.862 193.325ZM122.547 191.469L124.235 190.398L123.224 188.804L121.575 189.721L122.547 191.469ZM112.924 196.821L111.176 197.793L112.148 199.541L113.896 198.569L112.924 196.821ZM105.925 184.237L107.673 183.265L106.701 181.517L104.953 182.489L105.925 184.237ZM60.309 209.607L58.3132 209.736L58.5175 212.891L61.2811 211.354L60.309 209.607ZM180.983 141.513L51.1626 48.765L48.8374 52.0197L178.657 144.768L180.983 141.513ZM135.741 169.943L180.792 144.888L178.848 141.392L133.797 166.447L135.741 169.943ZM143.516 179.807L136.517 167.223L133.022 169.167L140.02 181.751L143.516 179.807ZM133.117 187.879L142.74 182.527L140.796 179.031L131.173 184.383L133.117 187.879ZM130.344 187C131.143 188.656 130.519 190.671 128.89 191.577L130.834 195.073C134.326 193.131 135.661 188.815 133.946 185.262L130.344 187ZM128.89 191.577C127.262 192.483 125.221 191.95 124.235 190.398L120.858 192.541C122.972 195.872 127.343 197.014 130.834 195.073L128.89 191.577ZM113.896 198.569L123.519 193.217L121.575 189.721L111.952 195.073L113.896 198.569ZM104.177 185.209L111.176 197.793L114.672 195.849L107.673 183.265L104.177 185.209ZM61.2811 211.354L106.897 185.985L104.953 182.489L59.3369 207.859L61.2811 211.354ZM48.0042 50.5216L58.3132 209.736L62.3048 209.477L51.9958 50.2631L48.0042 50.5216Z" fill="#3A36FF" mask="url(#path-15-inside-8_117_64)"/>
</g>
<mask id="path-17-inside-9_117_64" fill="white">
<path fill-rule="evenodd" clip-rule="evenodd" d="M51.6241 53.6404L177.471 143.55L133.799 167.838L140.584 180.037L131.255 185.225C132.474 187.75 131.524 190.819 129.042 192.199C126.561 193.579 123.453 192.767 121.951 190.4L112.622 195.588L105.838 183.389L61.6176 207.982L51.6241 53.6404Z"/>
</mask>
<path d="M177.471 143.55L177.958 144.424L179.339 143.656L178.053 142.737L177.471 143.55ZM51.6241 53.6404L52.2054 52.8268L50.4899 51.6012L50.6261 53.7051L51.6241 53.6404ZM133.799 167.838L133.313 166.965L132.439 167.451L132.925 168.325L133.799 167.838ZM140.584 180.037L141.07 180.911L141.944 180.425L141.458 179.551L140.584 180.037ZM131.255 185.225L130.769 184.351L129.945 184.81L130.355 185.66L131.255 185.225ZM129.042 192.199L129.529 193.073L129.042 192.199ZM121.951 190.4L122.795 189.864L122.289 189.068L121.465 189.526L121.951 190.4ZM112.622 195.588L111.748 196.074L112.234 196.948L113.108 196.462L112.622 195.588ZM105.838 183.389L106.712 182.903L106.226 182.029L105.352 182.515L105.838 183.389ZM61.6176 207.982L60.6197 208.047L60.7218 209.625L62.1036 208.856L61.6176 207.982ZM178.053 142.737L52.2054 52.8268L51.0427 54.4541L176.89 144.364L178.053 142.737ZM134.285 168.712L177.958 144.424L176.985 142.676L133.313 166.965L134.285 168.712ZM141.458 179.551L134.673 167.352L132.925 168.325L139.71 180.523L141.458 179.551ZM131.741 186.099L141.07 180.911L140.098 179.163L130.769 184.351L131.741 186.099ZM130.355 185.66C131.344 187.711 130.572 190.204 128.556 191.325L129.529 193.073C132.476 191.434 133.604 187.79 132.156 184.791L130.355 185.66ZM128.556 191.325C126.54 192.446 124.015 191.787 122.795 189.864L121.106 190.936C122.891 193.748 126.581 194.712 129.529 193.073L128.556 191.325ZM113.108 196.462L122.437 191.274L121.465 189.526L112.136 194.714L113.108 196.462ZM104.964 183.875L111.748 196.074L113.496 195.102L106.712 182.903L104.964 183.875ZM62.1036 208.856L106.324 184.263L105.352 182.515L61.1316 207.109L62.1036 208.856ZM50.6261 53.7051L60.6197 208.047L62.6155 207.918L52.622 53.5758L50.6261 53.7051Z" fill="#4844FF" mask="url(#path-17-inside-9_117_64)"/>
<defs>
<filter id="filter0_f_117_64" x="49.5" y="49.8924" width="130.82" height="160.214" filterUnits="userSpaceOnUse" color-interpolation-filters="sRGB">
<feFlood flood-opacity="0" result="BackgroundImageFix"/>
<feBlend mode="normal" in="SourceGraphic" in2="BackgroundImageFix" result="shape"/>
<feGaussianBlur stdDeviation="0.25" result="effect1_foregroundBlur_117_64"/>
</filter>
<filter id="filter1_f_117_64" x="48" y="48.3924" width="133.82" height="163.214" filterUnits="userSpaceOnUse" color-interpolation-filters="sRGB">
<feFlood flood-opacity="0" result="BackgroundImageFix"/>
<feBlend mode="normal" in="SourceGraphic" in2="BackgroundImageFix" result="shape"/>
<feGaussianBlur stdDeviation="1" result="effect1_foregroundBlur_117_64"/>
</filter>
<filter id="filter2_f_117_64" x="45" y="45.3924" width="139.82" height="169.214" filterUnits="userSpaceOnUse" color-interpolation-filters="sRGB">
<feFlood flood-opacity="0" result="BackgroundImageFix"/>
<feBlend mode="normal" in="SourceGraphic" in2="BackgroundImageFix" result="shape"/>
<feGaussianBlur stdDeviation="2.5" result="effect1_foregroundBlur_117_64"/>
</filter>
<filter id="filter3_f_117_64" x="40" y="40.3924" width="149.82" height="179.214" filterUnits="userSpaceOnUse" color-interpolation-filters="sRGB">
<feFlood flood-opacity="0" result="BackgroundImageFix"/>
<feBlend mode="normal" in="SourceGraphic" in2="BackgroundImageFix" result="shape"/>
<feGaussianBlur stdDeviation="5" result="effect1_foregroundBlur_117_64"/>
</filter>
<filter id="filter4_f_117_64" x="25" y="25.3924" width="179.82" height="209.214" filterUnits="userSpaceOnUse" color-interpolation-filters="sRGB">
<feFlood flood-opacity="0" result="BackgroundImageFix"/>
<feBlend mode="normal" in="SourceGraphic" in2="BackgroundImageFix" result="shape"/>
<feGaussianBlur stdDeviation="12.5" result="effect1_foregroundBlur_117_64"/>
</filter>
<filter id="filter5_f_117_64" x="0" y="0.392365" width="229.82" height="259.214" filterUnits="userSpaceOnUse" color-interpolation-filters="sRGB">
<feFlood flood-opacity="0" result="BackgroundImageFix"/>
<feBlend mode="normal" in="SourceGraphic" in2="BackgroundImageFix" result="shape"/>
<feGaussianBlur stdDeviation="25" result="effect1_foregroundBlur_117_64"/>
</filter>
<filter id="filter6_f_117_64" x="0" y="0.392365" width="229.82" height="259.214" filterUnits="userSpaceOnUse" color-interpolation-filters="sRGB">
<feFlood flood-opacity="0" result="BackgroundImageFix"/>
<feBlend mode="normal" in="SourceGraphic" in2="BackgroundImageFix" result="shape"/>
<feGaussianBlur stdDeviation="25" result="effect1_foregroundBlur_117_64"/>
</filter>
<filter id="filter7_f_117_64" x="0" y="0.392365" width="229.82" height="259.214" filterUnits="userSpaceOnUse" color-interpolation-filters="sRGB">
<feFlood flood-opacity="0" result="BackgroundImageFix"/>
<feBlend mode="normal" in="SourceGraphic" in2="BackgroundImageFix" result="shape"/>
<feGaussianBlur stdDeviation="25" result="effect1_foregroundBlur_117_64"/>
</filter>
</defs>
</svg>
